<!-- Generated by IcoMoon.io -->
<svg version="1.1" xmlns="http://www.w3.org/2000/svg" width="32" height="32" viewBox="0 0 32 32">
<title>arrow_top</title>
<path fill="#fff" d="M8.707 14.041c-0.391 0.391-1.024 0.391-1.414 0s-0.391-1.024 0-1.414l1.414 1.414zM16 5.333l-0.707-0.707 0.707-0.707 0.707 0.707-0.707 0.707zM24.707 12.626c0.39 0.391 0.39 1.024 0 1.414s-1.024 0.391-1.414 0l1.414-1.414zM17 25.333c0 0.552-0.448 1-1 1s-1-0.448-1-1h2zM7.293 12.626l8-8 1.414 1.414-8 8-1.414-1.414zM16.707 4.626l8 8-1.414 1.414-8-8 1.414-1.414zM17 5.333v20h-2v-20h2z"></path>
</svg>
