<svg xmlns="http://www.w3.org/2000/svg" xmlns:xlink="http://www.w3.org/1999/xlink" width="500" zoomAndPan="magnify" viewBox="0 0 375 74.999997" height="100" preserveAspectRatio="xMidYMid meet" version="1.0"><defs><g/></defs><g fill="#4b3535" fill-opacity="1"><g transform="translate(0.597664, 62.249994)"><g><path d="M 6.25 -50.921875 L 12.828125 -50.921875 L 12.828125 0 L 6.25 0 Z M 6.25 -50.921875 "/></g></g></g><g fill="#4b3535" fill-opacity="1"><g transform="translate(19.744051, 62.249994)"><g><path d="M 40.140625 -36.375 L 40.140625 0 L 33.90625 0 L 33.90625 -5.484375 C 32.570312 -3.609375 30.816406 -2.15625 28.640625 -1.125 C 26.472656 -0.101562 24.109375 0.40625 21.546875 0.40625 C 16.703125 0.40625 12.882812 -0.929688 10.09375 -3.609375 C 7.300781 -6.285156 5.90625 -10.226562 5.90625 -15.4375 L 5.90625 -36.375 L 12.484375 -36.375 L 12.484375 -16.203125 C 12.484375 -12.671875 13.328125 -10 15.015625 -8.1875 C 16.710938 -6.382812 19.140625 -5.484375 22.296875 -5.484375 C 25.773438 -5.484375 28.519531 -6.535156 30.53125 -8.640625 C 32.550781 -10.742188 33.5625 -13.71875 33.5625 -17.5625 L 33.5625 -36.375 Z M 40.140625 -36.375 "/></g></g></g><g fill="#4b3535" fill-opacity="1"><g transform="translate(66.203192, 62.249994)"><g><path d="M 51.75 -36.71875 C 56.320312 -36.71875 59.945312 -35.390625 62.625 -32.734375 C 65.300781 -30.078125 66.640625 -26.144531 66.640625 -20.9375 L 66.640625 0 L 60.046875 0 L 60.046875 -20.171875 C 60.046875 -23.691406 59.234375 -26.34375 57.609375 -28.125 C 55.984375 -29.914062 53.660156 -30.8125 50.640625 -30.8125 C 47.304688 -30.8125 44.65625 -29.769531 42.6875 -27.6875 C 40.71875 -25.601562 39.734375 -22.617188 39.734375 -18.734375 L 39.734375 0 L 33.140625 0 L 33.140625 -20.171875 C 33.140625 -23.691406 32.328125 -26.34375 30.703125 -28.125 C 29.085938 -29.914062 26.769531 -30.8125 23.75 -30.8125 C 20.40625 -30.8125 17.75 -29.769531 15.78125 -27.6875 C 13.8125 -25.601562 12.828125 -22.617188 12.828125 -18.734375 L 12.828125 0 L 6.25 0 L 6.25 -36.375 L 12.5625 -36.375 L 12.5625 -30.953125 C 13.882812 -32.828125 15.617188 -34.253906 17.765625 -35.234375 C 19.921875 -36.222656 22.367188 -36.71875 25.109375 -36.71875 C 27.953125 -36.71875 30.46875 -36.144531 32.65625 -35 C 34.851562 -33.851562 36.550781 -32.179688 37.75 -29.984375 C 39.113281 -32.085938 41.019531 -33.734375 43.46875 -34.921875 C 45.914062 -36.117188 48.675781 -36.71875 51.75 -36.71875 Z M 51.75 -36.71875 "/></g></g></g><g fill="#4b3535" fill-opacity="1"><g transform="translate(138.739846, 62.249994)"><g><path d="M 21.828125 0.40625 C 18.210938 0.40625 14.960938 -0.390625 12.078125 -1.984375 C 9.191406 -3.585938 6.9375 -5.796875 5.3125 -8.609375 C 3.6875 -11.421875 2.875 -14.613281 2.875 -18.1875 C 2.875 -21.75 3.6875 -24.9375 5.3125 -27.75 C 6.9375 -30.570312 9.191406 -32.769531 12.078125 -34.34375 C 14.960938 -35.925781 18.210938 -36.71875 21.828125 -36.71875 C 25.441406 -36.71875 28.675781 -35.925781 31.53125 -34.34375 C 34.394531 -32.769531 36.632812 -30.570312 38.25 -27.75 C 39.875 -24.9375 40.6875 -21.75 40.6875 -18.1875 C 40.6875 -14.613281 39.875 -11.421875 38.25 -8.609375 C 36.632812 -5.796875 34.394531 -3.585938 31.53125 -1.984375 C 28.675781 -0.390625 25.441406 0.40625 21.828125 0.40625 Z M 21.828125 -5.359375 C 24.160156 -5.359375 26.25 -5.894531 28.09375 -6.96875 C 29.945312 -8.039062 31.398438 -9.546875 32.453125 -11.484375 C 33.503906 -13.429688 34.03125 -15.664062 34.03125 -18.1875 C 34.03125 -20.695312 33.503906 -22.925781 32.453125 -24.875 C 31.398438 -26.820312 29.945312 -28.320312 28.09375 -29.375 C 26.25 -30.425781 24.160156 -30.953125 21.828125 -30.953125 C 19.492188 -30.953125 17.398438 -30.425781 15.546875 -29.375 C 13.691406 -28.320312 12.222656 -26.820312 11.140625 -24.875 C 10.066406 -22.925781 9.53125 -20.695312 9.53125 -18.1875 C 9.53125 -15.664062 10.066406 -13.429688 11.140625 -11.484375 C 12.222656 -9.546875 13.691406 -8.039062 15.546875 -6.96875 C 17.398438 -5.894531 19.492188 -5.359375 21.828125 -5.359375 Z M 21.828125 -5.359375 "/></g></g></g><g fill="#4b3535" fill-opacity="1"><g transform="translate(182.316735, 62.249994)"><g><path d="M 7.828125 0.40625 C 6.546875 0.40625 5.445312 -0.0351562 4.53125 -0.921875 C 3.613281 -1.816406 3.15625 -2.953125 3.15625 -4.328125 C 3.15625 -5.648438 3.613281 -6.753906 4.53125 -7.640625 C 5.445312 -8.535156 6.546875 -8.984375 7.828125 -8.984375 C 9.109375 -8.984375 10.179688 -8.546875 11.046875 -7.671875 C 11.921875 -6.804688 12.359375 -5.691406 12.359375 -4.328125 C 12.359375 -2.953125 11.910156 -1.816406 11.015625 -0.921875 C 10.117188 -0.0351562 9.054688 0.40625 7.828125 0.40625 Z M 7.828125 0.40625 "/></g></g></g><g fill="#4b3535" fill-opacity="1"><g transform="translate(197.894615, 62.249994)"><g><path d="M 16.671875 0.40625 C 13.703125 0.40625 10.84375 0.0078125 8.09375 -0.78125 C 5.351562 -1.582031 3.203125 -2.601562 1.640625 -3.84375 L 4.390625 -9.0625 C 5.992188 -7.914062 7.9375 -7 10.21875 -6.3125 C 12.507812 -5.625 14.820312 -5.28125 17.15625 -5.28125 C 22.914062 -5.28125 25.796875 -6.925781 25.796875 -10.21875 C 25.796875 -11.320312 25.40625 -12.191406 24.625 -12.828125 C 23.851562 -13.472656 22.882812 -13.941406 21.71875 -14.234375 C 20.550781 -14.535156 18.894531 -14.867188 16.75 -15.234375 C 13.820312 -15.691406 11.429688 -16.21875 9.578125 -16.8125 C 7.722656 -17.40625 6.128906 -18.410156 4.796875 -19.828125 C 3.472656 -21.242188 2.8125 -23.234375 2.8125 -25.796875 C 2.8125 -29.097656 4.179688 -31.742188 6.921875 -33.734375 C 9.671875 -35.722656 13.359375 -36.71875 17.984375 -36.71875 C 20.398438 -36.71875 22.820312 -36.421875 25.25 -35.828125 C 27.675781 -35.234375 29.664062 -34.429688 31.21875 -33.421875 L 28.40625 -28.203125 C 25.4375 -30.128906 21.9375 -31.09375 17.90625 -31.09375 C 15.113281 -31.09375 12.984375 -30.632812 11.515625 -29.71875 C 10.054688 -28.800781 9.328125 -27.585938 9.328125 -26.078125 C 9.328125 -24.890625 9.738281 -23.953125 10.5625 -23.265625 C 11.382812 -22.578125 12.398438 -22.070312 13.609375 -21.75 C 14.828125 -21.4375 16.535156 -21.070312 18.734375 -20.65625 C 21.660156 -20.15625 24.023438 -19.617188 25.828125 -19.046875 C 27.640625 -18.472656 29.1875 -17.5 30.46875 -16.125 C 31.75 -14.75 32.390625 -12.828125 32.390625 -10.359375 C 32.390625 -7.066406 30.984375 -4.445312 28.171875 -2.5 C 25.359375 -0.5625 21.523438 0.40625 16.671875 0.40625 Z M 16.671875 0.40625 "/></g></g></g><g fill="#4b3535" fill-opacity="1"><g transform="translate(232.275754, 62.249994)"><g><path d="M 26.6875 -2.125 C 25.726562 -1.300781 24.539062 -0.671875 23.125 -0.234375 C 21.707031 0.191406 20.242188 0.40625 18.734375 0.40625 C 15.078125 0.40625 12.238281 -0.570312 10.21875 -2.53125 C 8.207031 -4.5 7.203125 -7.316406 7.203125 -10.984375 L 7.203125 -30.953125 L 1.03125 -30.953125 L 1.03125 -36.375 L 7.203125 -36.375 L 7.203125 -44.328125 L 13.796875 -44.328125 L 13.796875 -36.375 L 24.21875 -36.375 L 24.21875 -30.953125 L 13.796875 -30.953125 L 13.796875 -11.25 C 13.796875 -9.28125 14.285156 -7.769531 15.265625 -6.71875 C 16.253906 -5.664062 17.660156 -5.140625 19.484375 -5.140625 C 21.503906 -5.140625 23.222656 -5.710938 24.640625 -6.859375 Z M 26.6875 -2.125 "/></g></g></g><g fill="#4b3535" fill-opacity="1"><g transform="translate(260.68651, 62.249994)"><g><path d="M 21.828125 0.40625 C 18.210938 0.40625 14.960938 -0.390625 12.078125 -1.984375 C 9.191406 -3.585938 6.9375 -5.796875 5.3125 -8.609375 C 3.6875 -11.421875 2.875 -14.613281 2.875 -18.1875 C 2.875 -21.75 3.6875 -24.9375 5.3125 -27.75 C 6.9375 -30.570312 9.191406 -32.769531 12.078125 -34.34375 C 14.960938 -35.925781 18.210938 -36.71875 21.828125 -36.71875 C 25.441406 -36.71875 28.675781 -35.925781 31.53125 -34.34375 C 34.394531 -32.769531 36.632812 -30.570312 38.25 -27.75 C 39.875 -24.9375 40.6875 -21.75 40.6875 -18.1875 C 40.6875 -14.613281 39.875 -11.421875 38.25 -8.609375 C 36.632812 -5.796875 34.394531 -3.585938 31.53125 -1.984375 C 28.675781 -0.390625 25.441406 0.40625 21.828125 0.40625 Z M 21.828125 -5.359375 C 24.160156 -5.359375 26.25 -5.894531 28.09375 -6.96875 C 29.945312 -8.039062 31.398438 -9.546875 32.453125 -11.484375 C 33.503906 -13.429688 34.03125 -15.664062 34.03125 -18.1875 C 34.03125 -20.695312 33.503906 -22.925781 32.453125 -24.875 C 31.398438 -26.820312 29.945312 -28.320312 28.09375 -29.375 C 26.25 -30.425781 24.160156 -30.953125 21.828125 -30.953125 C 19.492188 -30.953125 17.398438 -30.425781 15.546875 -29.375 C 13.691406 -28.320312 12.222656 -26.820312 11.140625 -24.875 C 10.066406 -22.925781 9.53125 -20.695312 9.53125 -18.1875 C 9.53125 -15.664062 10.066406 -13.429688 11.140625 -11.484375 C 12.222656 -9.546875 13.691406 -8.039062 15.546875 -6.96875 C 17.398438 -5.894531 19.492188 -5.359375 21.828125 -5.359375 Z M 21.828125 -5.359375 "/></g></g></g><g fill="#4b3535" fill-opacity="1"><g transform="translate(304.263411, 62.249994)"><g><path d="M 12.5625 -30.265625 C 13.707031 -32.367188 15.398438 -33.96875 17.640625 -35.0625 C 19.878906 -36.164062 22.597656 -36.71875 25.796875 -36.71875 L 25.796875 -30.328125 C 25.429688 -30.378906 24.929688 -30.40625 24.296875 -30.40625 C 20.722656 -30.40625 17.914062 -29.335938 15.875 -27.203125 C 13.84375 -25.078125 12.828125 -22.046875 12.828125 -18.109375 L 12.828125 0 L 6.25 0 L 6.25 -36.375 L 12.5625 -36.375 Z M 12.5625 -30.265625 "/></g></g></g><g fill="#4b3535" fill-opacity="1"><g transform="translate(332.39967, 62.249994)"><g><path d="M 39.109375 -17.984375 C 39.109375 -17.472656 39.066406 -16.804688 38.984375 -15.984375 L 9.46875 -15.984375 C 9.882812 -12.785156 11.289062 -10.210938 13.6875 -8.265625 C 16.09375 -6.328125 19.078125 -5.359375 22.640625 -5.359375 C 26.992188 -5.359375 30.492188 -6.820312 33.140625 -9.75 L 36.78125 -5.484375 C 35.132812 -3.566406 33.085938 -2.101562 30.640625 -1.09375 C 28.191406 -0.09375 25.457031 0.40625 22.4375 0.40625 C 18.59375 0.40625 15.179688 -0.378906 12.203125 -1.953125 C 9.234375 -3.535156 6.9375 -5.742188 5.3125 -8.578125 C 3.6875 -11.410156 2.875 -14.613281 2.875 -18.1875 C 2.875 -21.707031 3.664062 -24.882812 5.25 -27.71875 C 6.832031 -30.5625 9.003906 -32.769531 11.765625 -34.34375 C 14.535156 -35.925781 17.660156 -36.71875 21.140625 -36.71875 C 24.617188 -36.71875 27.71875 -35.925781 30.4375 -34.34375 C 33.15625 -32.769531 35.28125 -30.5625 36.8125 -27.71875 C 38.34375 -24.882812 39.109375 -21.640625 39.109375 -17.984375 Z M 21.140625 -31.15625 C 17.984375 -31.15625 15.335938 -30.191406 13.203125 -28.265625 C 11.078125 -26.347656 9.832031 -23.832031 9.46875 -20.71875 L 32.796875 -20.71875 C 32.429688 -23.789062 31.1875 -26.296875 29.0625 -28.234375 C 26.9375 -30.179688 24.296875 -31.15625 21.140625 -31.15625 Z M 21.140625 -31.15625 "/></g></g></g></svg>