<svg xmlns="http://www.w3.org/2000/svg" xmlns:xlink="http://www.w3.org/1999/xlink" zoomAndPan="magnify" viewBox="0 0 375 374.999991" preserveAspectRatio="xMidYMid meet" version="1.0"><defs><g/></defs><g fill="#4b3535" fill-opacity="1"><g transform="translate(32.753909, 215.175015)"><g><path d="M 5.703125 -42.765625 L 9.796875 -42.765625 L 9.796875 0 L 5.703125 0 Z M 5.703125 -42.765625 "/></g></g></g><g fill="#4b3535" fill-opacity="1"><g transform="translate(48.260308, 215.175015)"><g><path d="M 33.03125 -30.3125 L 33.03125 0 L 29.109375 0 L 29.109375 -5.53125 C 28.035156 -3.6875 26.554688 -2.253906 24.671875 -1.234375 C 22.785156 -0.222656 20.632812 0.28125 18.21875 0.28125 C 14.257812 0.28125 11.132812 -0.820312 8.84375 -3.03125 C 6.5625 -5.238281 5.421875 -8.472656 5.421875 -12.734375 L 5.421875 -30.3125 L 9.515625 -30.3125 L 9.515625 -13.140625 C 9.515625 -9.953125 10.300781 -7.53125 11.875 -5.875 C 13.445312 -4.226562 15.695312 -3.40625 18.625 -3.40625 C 21.8125 -3.40625 24.328125 -4.375 26.171875 -6.3125 C 28.015625 -8.25 28.9375 -10.945312 28.9375 -14.40625 L 28.9375 -30.3125 Z M 33.03125 -30.3125 "/></g></g></g><g fill="#4b3535" fill-opacity="1"><g transform="translate(87.055125, 215.175015)"><g><path d="M 43.515625 -30.546875 C 47.316406 -30.546875 50.300781 -29.453125 52.46875 -27.265625 C 54.644531 -25.078125 55.734375 -21.847656 55.734375 -17.578125 L 55.734375 0 L 51.640625 0 L 51.640625 -17.171875 C 51.640625 -20.328125 50.878906 -22.726562 49.359375 -24.375 C 47.847656 -26.03125 45.707031 -26.859375 42.9375 -26.859375 C 39.789062 -26.859375 37.3125 -25.882812 35.5 -23.9375 C 33.695312 -22 32.796875 -19.320312 32.796875 -15.90625 L 32.796875 0 L 28.703125 0 L 28.703125 -17.171875 C 28.703125 -20.328125 27.941406 -22.726562 26.421875 -24.375 C 24.910156 -26.03125 22.75 -26.859375 19.9375 -26.859375 C 16.832031 -26.859375 14.363281 -25.882812 12.53125 -23.9375 C 10.707031 -22 9.796875 -19.320312 9.796875 -15.90625 L 9.796875 0 L 5.703125 0 L 5.703125 -30.3125 L 9.625 -30.3125 L 9.625 -24.78125 C 10.695312 -26.625 12.191406 -28.046875 14.109375 -29.046875 C 16.035156 -30.046875 18.25 -30.546875 20.75 -30.546875 C 23.289062 -30.546875 25.488281 -30.007812 27.34375 -28.9375 C 29.207031 -27.863281 30.601562 -26.269531 31.53125 -24.15625 C 32.644531 -26.15625 34.25 -27.71875 36.34375 -28.84375 C 38.4375 -29.976562 40.828125 -30.546875 43.515625 -30.546875 Z M 43.515625 -30.546875 "/></g></g></g><g fill="#4b3535" fill-opacity="1"><g transform="translate(148.216043, 215.175015)"><g><path d="M 18.09375 0.28125 C 15.175781 0.28125 12.546875 -0.378906 10.203125 -1.703125 C 7.859375 -3.023438 6.015625 -4.859375 4.671875 -7.203125 C 3.328125 -9.546875 2.65625 -12.195312 2.65625 -15.15625 C 2.65625 -18.113281 3.328125 -20.765625 4.671875 -23.109375 C 6.015625 -25.453125 7.859375 -27.273438 10.203125 -28.578125 C 12.546875 -29.890625 15.175781 -30.546875 18.09375 -30.546875 C 21.019531 -30.546875 23.65625 -29.890625 26 -28.578125 C 28.34375 -27.273438 30.175781 -25.453125 31.5 -23.109375 C 32.820312 -20.765625 33.484375 -18.113281 33.484375 -15.15625 C 33.484375 -12.195312 32.820312 -9.546875 31.5 -7.203125 C 30.175781 -4.859375 28.34375 -3.023438 26 -1.703125 C 23.65625 -0.378906 21.019531 0.28125 18.09375 0.28125 Z M 18.09375 -3.34375 C 20.25 -3.34375 22.179688 -3.832031 23.890625 -4.8125 C 25.597656 -5.789062 26.929688 -7.179688 27.890625 -8.984375 C 28.859375 -10.796875 29.34375 -12.851562 29.34375 -15.15625 C 29.34375 -17.46875 28.859375 -19.523438 27.890625 -21.328125 C 26.929688 -23.128906 25.597656 -24.519531 23.890625 -25.5 C 22.179688 -26.476562 20.25 -26.96875 18.09375 -26.96875 C 15.945312 -26.96875 14.015625 -26.476562 12.296875 -25.5 C 10.585938 -24.519531 9.242188 -23.128906 8.265625 -21.328125 C 7.285156 -19.523438 6.796875 -17.46875 6.796875 -15.15625 C 6.796875 -12.851562 7.285156 -10.796875 8.265625 -8.984375 C 9.242188 -7.179688 10.585938 -5.789062 12.296875 -4.8125 C 14.015625 -3.832031 15.945312 -3.34375 18.09375 -3.34375 Z M 18.09375 -3.34375 "/></g></g></g><g fill="#4b3535" fill-opacity="1"><g transform="translate(184.359206, 215.175015)"><g><path d="M 6.109375 0.28125 C 5.265625 0.28125 4.546875 -0.0234375 3.953125 -0.640625 C 3.359375 -1.253906 3.0625 -2 3.0625 -2.875 C 3.0625 -3.757812 3.359375 -4.5 3.953125 -5.09375 C 4.546875 -5.695312 5.265625 -6 6.109375 -6 C 6.953125 -6 7.679688 -5.695312 8.296875 -5.09375 C 8.910156 -4.5 9.21875 -3.757812 9.21875 -2.875 C 9.21875 -2 8.910156 -1.253906 8.296875 -0.640625 C 7.679688 -0.0234375 6.953125 0.28125 6.109375 0.28125 Z M 6.109375 0.28125 "/></g></g></g><g fill="#4b3535" fill-opacity="1"><g transform="translate(196.579859, 215.175015)"><g><path d="M 13.828125 0.28125 C 11.367188 0.28125 9.015625 -0.0703125 6.765625 -0.78125 C 4.523438 -1.488281 2.769531 -2.378906 1.5 -3.453125 L 3.34375 -6.6875 C 4.613281 -5.6875 6.207031 -4.867188 8.125 -4.234375 C 10.050781 -3.597656 12.050781 -3.28125 14.125 -3.28125 C 16.882812 -3.28125 18.925781 -3.710938 20.25 -4.578125 C 21.582031 -5.441406 22.25 -6.664062 22.25 -8.25 C 22.25 -9.363281 21.882812 -10.234375 21.15625 -10.859375 C 20.425781 -11.492188 19.503906 -11.972656 18.390625 -12.296875 C 17.273438 -12.628906 15.796875 -12.945312 13.953125 -13.25 C 11.492188 -13.71875 9.515625 -14.191406 8.015625 -14.671875 C 6.515625 -15.148438 5.234375 -15.960938 4.171875 -17.109375 C 3.117188 -18.265625 2.59375 -19.863281 2.59375 -21.90625 C 2.59375 -24.4375 3.648438 -26.507812 5.765625 -28.125 C 7.878906 -29.738281 10.816406 -30.546875 14.578125 -30.546875 C 16.535156 -30.546875 18.492188 -30.285156 20.453125 -29.765625 C 22.421875 -29.253906 24.035156 -28.570312 25.296875 -27.71875 L 23.515625 -24.4375 C 21.015625 -26.164062 18.035156 -27.03125 14.578125 -27.03125 C 11.960938 -27.03125 9.992188 -26.566406 8.671875 -25.640625 C 7.347656 -24.722656 6.6875 -23.515625 6.6875 -22.015625 C 6.6875 -20.867188 7.0625 -19.945312 7.8125 -19.25 C 8.5625 -18.5625 9.492188 -18.050781 10.609375 -17.71875 C 11.722656 -17.394531 13.257812 -17.0625 15.21875 -16.71875 C 17.632812 -16.257812 19.570312 -15.796875 21.03125 -15.328125 C 22.5 -14.867188 23.75 -14.082031 24.78125 -12.96875 C 25.820312 -11.851562 26.34375 -10.316406 26.34375 -8.359375 C 26.34375 -5.703125 25.238281 -3.597656 23.03125 -2.046875 C 20.820312 -0.492188 17.753906 0.28125 13.828125 0.28125 Z M 13.828125 0.28125 "/></g></g></g><g fill="#4b3535" fill-opacity="1"><g transform="translate(224.768086, 215.175015)"><g><path d="M 21.671875 -1.84375 C 20.898438 -1.15625 19.945312 -0.628906 18.8125 -0.265625 C 17.6875 0.0976562 16.507812 0.28125 15.28125 0.28125 C 12.4375 0.28125 10.242188 -0.484375 8.703125 -2.015625 C 7.160156 -3.554688 6.390625 -5.726562 6.390625 -8.53125 L 6.390625 -26.859375 L 0.984375 -26.859375 L 0.984375 -30.3125 L 6.390625 -30.3125 L 6.390625 -36.953125 L 10.484375 -36.953125 L 10.484375 -30.3125 L 19.71875 -30.3125 L 19.71875 -26.859375 L 10.484375 -26.859375 L 10.484375 -8.765625 C 10.484375 -6.953125 10.9375 -5.578125 11.84375 -4.640625 C 12.75 -3.703125 14.046875 -3.234375 15.734375 -3.234375 C 16.578125 -3.234375 17.394531 -3.363281 18.1875 -3.625 C 18.976562 -3.894531 19.660156 -4.28125 20.234375 -4.78125 Z M 21.671875 -1.84375 "/></g></g></g><g fill="#4b3535" fill-opacity="1"><g transform="translate(248.171801, 215.175015)"><g><path d="M 18.09375 0.28125 C 15.175781 0.28125 12.546875 -0.378906 10.203125 -1.703125 C 7.859375 -3.023438 6.015625 -4.859375 4.671875 -7.203125 C 3.328125 -9.546875 2.65625 -12.195312 2.65625 -15.15625 C 2.65625 -18.113281 3.328125 -20.765625 4.671875 -23.109375 C 6.015625 -25.453125 7.859375 -27.273438 10.203125 -28.578125 C 12.546875 -29.890625 15.175781 -30.546875 18.09375 -30.546875 C 21.019531 -30.546875 23.65625 -29.890625 26 -28.578125 C 28.34375 -27.273438 30.175781 -25.453125 31.5 -23.109375 C 32.820312 -20.765625 33.484375 -18.113281 33.484375 -15.15625 C 33.484375 -12.195312 32.820312 -9.546875 31.5 -7.203125 C 30.175781 -4.859375 28.34375 -3.023438 26 -1.703125 C 23.65625 -0.378906 21.019531 0.28125 18.09375 0.28125 Z M 18.09375 -3.34375 C 20.25 -3.34375 22.179688 -3.832031 23.890625 -4.8125 C 25.597656 -5.789062 26.929688 -7.179688 27.890625 -8.984375 C 28.859375 -10.796875 29.34375 -12.851562 29.34375 -15.15625 C 29.34375 -17.46875 28.859375 -19.523438 27.890625 -21.328125 C 26.929688 -23.128906 25.597656 -24.519531 23.890625 -25.5 C 22.179688 -26.476562 20.25 -26.96875 18.09375 -26.96875 C 15.945312 -26.96875 14.015625 -26.476562 12.296875 -25.5 C 10.585938 -24.519531 9.242188 -23.128906 8.265625 -21.328125 C 7.285156 -19.523438 6.796875 -17.46875 6.796875 -15.15625 C 6.796875 -12.851562 7.285156 -10.796875 8.265625 -8.984375 C 9.242188 -7.179688 10.585938 -5.789062 12.296875 -4.8125 C 14.015625 -3.832031 15.945312 -3.34375 18.09375 -3.34375 Z M 18.09375 -3.34375 "/></g></g></g><g fill="#4b3535" fill-opacity="1"><g transform="translate(284.314964, 215.175015)"><g><path d="M 9.625 -24.375 C 10.582031 -26.414062 12.007812 -27.953125 13.90625 -28.984375 C 15.8125 -30.023438 18.171875 -30.546875 20.984375 -30.546875 L 20.984375 -26.578125 L 20 -26.625 C 16.8125 -26.625 14.3125 -25.644531 12.5 -23.6875 C 10.695312 -21.726562 9.796875 -18.984375 9.796875 -15.453125 L 9.796875 0 L 5.703125 0 L 5.703125 -30.3125 L 9.625 -30.3125 Z M 9.625 -24.375 "/></g></g></g><g fill="#4b3535" fill-opacity="1"><g transform="translate(307.430449, 215.175015)"><g><path d="M 32.109375 -13.890625 L 6.75 -13.890625 C 6.976562 -10.742188 8.1875 -8.195312 10.375 -6.25 C 12.5625 -4.3125 15.328125 -3.34375 18.671875 -3.34375 C 20.554688 -3.34375 22.285156 -3.675781 23.859375 -4.34375 C 25.429688 -5.019531 26.796875 -6.015625 27.953125 -7.328125 L 30.265625 -4.671875 C 28.921875 -3.054688 27.238281 -1.828125 25.21875 -0.984375 C 23.195312 -0.140625 20.976562 0.28125 18.5625 0.28125 C 15.445312 0.28125 12.6875 -0.378906 10.28125 -1.703125 C 7.882812 -3.023438 6.015625 -4.859375 4.671875 -7.203125 C 3.328125 -9.546875 2.65625 -12.195312 2.65625 -15.15625 C 2.65625 -18.113281 3.296875 -20.765625 4.578125 -23.109375 C 5.867188 -25.453125 7.632812 -27.273438 9.875 -28.578125 C 12.125 -29.890625 14.65625 -30.546875 17.46875 -30.546875 C 20.269531 -30.546875 22.785156 -29.890625 25.015625 -28.578125 C 27.242188 -27.273438 28.988281 -25.460938 30.25 -23.140625 C 31.519531 -20.816406 32.15625 -18.15625 32.15625 -15.15625 Z M 17.46875 -27.03125 C 14.539062 -27.03125 12.085938 -26.097656 10.109375 -24.234375 C 8.128906 -22.367188 7.007812 -19.941406 6.75 -16.953125 L 28.25 -16.953125 C 27.976562 -19.941406 26.851562 -22.367188 24.875 -24.234375 C 22.894531 -26.097656 20.425781 -27.03125 17.46875 -27.03125 Z M 17.46875 -27.03125 "/></g></g></g></svg>