<svg aria-hidden="true" style="position: absolute; width: 0; height: 0; overflow: hidden;" version="1.1" xmlns="http://www.w3.org/2000/svg" xmlns:xlink="http://www.w3.org/1999/xlink">
<defs>
<symbol id="icon-arrow_top" viewBox="0 0 32 32">
<path fill="#fff" style="fill: var(--color1, #fff)" d="M8.707 14.041c-0.391 0.391-1.024 0.391-1.414 0s-0.391-1.024 0-1.414l1.414 1.414zM16 5.333l-0.707-0.707 0.707-0.707 0.707 0.707-0.707 0.707zM24.707 12.626c0.39 0.391 0.39 1.024 0 1.414s-1.024 0.391-1.414 0l1.414-1.414zM17 25.333c0 0.552-0.448 1-1 1s-1-0.448-1-1h2zM7.293 12.626l8-8 1.414 1.414-8 8-1.414-1.414zM16.707 4.626l8 8-1.414 1.414-8-8 1.414-1.414zM17 5.333v20h-2v-20h2z"></path>
</symbol>
<symbol id="icon-brand-2" viewBox="0 0 91 32">
<path d="M0 0h91.429v32h-91.429v-32z"></path>
</symbol>
<symbol id="icon-brand-4" viewBox="0 0 91 32">
<path d="M0 0h91.429v32h-91.429v-32z"></path>
</symbol>
<symbol id="icon-brand-3" viewBox="0 0 91 32">
<path d="M0 0h91.429v32h-91.429v-32z"></path>
</symbol>
<symbol id="icon-brand-5" viewBox="0 0 91 32">
<path d="M0 0h91.429v32h-91.429v-32z"></path>
</symbol>
<symbol id="icon-brand-1" viewBox="0 0 91 32">
<path d="M0 0h91.429v32h-91.429v-32z"></path>
</symbol>
<!-- <symbol id="icon-cart" viewBox="0 0 32 32">
<path d="M12 29c0 1.657-1.343 3-3 3s-3-1.343-3-3c0-1.657 1.343-3 3-3s3 1.343 3 3z"></path>
<path d="M32 29c0 1.657-1.343 3-3 3s-3-1.343-3-3c0-1.657 1.343-3 3-3s3 1.343 3 3z"></path>
<path d="M32 16v-12h-24c0-1.105-0.895-2-2-2h-6v2h4l1.502 12.877c-0.915 0.733-1.502 1.859-1.502 3.123 0 2.209 1.791 4 4 4h24v-2h-24c-1.105 0-2-0.895-2-2 0-0.007 0-0.014 0-0.020l26-3.98z"></path>
</symbol> -->
<symbol id="icon-cart" viewBox="0 0 32 32">
<path stroke-linejoin="miter" stroke-linecap="round" stroke-miterlimit="4" stroke-width="2.6667" d="M10.667 16v-5.333c0-2.946 2.388-5.333 5.333-5.333v0c2.945 0 5.333 2.388 5.333 5.333v5.333"></path>
<path stroke-linejoin="miter" stroke-linecap="butt" stroke-miterlimit="4" stroke-width="2.6667" d="M4.926 16.89c0.193-2.321 0.29-3.482 1.056-4.186s1.93-0.704 4.259-0.704h11.519c2.329 0 3.494 0 4.259 0.704s0.862 1.865 1.056 4.186l0.685 8.221c0.113 1.351 0.169 2.027-0.227 2.458s-1.074 0.431-2.43 0.431h-18.204c-1.356 0-2.034 0-2.43-0.431s-0.34-1.106-0.227-2.458l0.685-8.221z"></path>
</symbol>
<symbol id="icon-user" viewBox="0 0 32 32">
<path stroke-linejoin="miter" stroke-linecap="round" stroke-miterlimit="4" stroke-width="2.6667" d="M26.303 27.263c-0.608-1.701-1.947-3.204-3.81-4.276s-4.145-1.653-6.493-1.653-4.631 0.581-6.493 1.653c-1.863 1.072-3.202 2.575-3.81 4.276"></path>
<path stroke-linejoin="miter" stroke-linecap="round" stroke-miterlimit="4" stroke-width="2.6667" d="M21.333 10.667c0 2.946-2.388 5.333-5.333 5.333s-5.333-2.388-5.333-5.333c0-2.946 2.388-5.333 5.333-5.333s5.333 2.388 5.333 5.333z"></path>
</symbol>
<symbol id="icon-logo" viewBox="0 0 169 32">
<path d="M39.576 15.622c0 3.189 0.922 5.683 2.767 7.484 1.845 1.792 4.142 2.688 6.891 2.688 1.555 0 2.973-0.312 4.256-0.936 1.291-0.624 2.345-1.507 3.162-2.648l-1.041-0.883c-0.553 0.835-1.344 1.528-2.372 2.082s-2.262 0.83-3.703 0.83c-2.187 0-3.971-0.773-5.35-2.319-1.379-1.555-2.077-3.79-2.095-6.707-0.018-2.785 0.624-4.88 1.924-6.285 1.3-1.414 3.066-2.121 5.297-2.121 0.922 0 1.792 0.149 2.609 0.448 0.817 0.29 1.493 0.712 2.029 1.265l1.318-1.384c-0.755-0.553-1.665-0.984-2.728-1.291-1.054-0.307-2.148-0.461-3.281-0.461-2.82 0-5.139 0.971-6.957 2.912-1.818 1.933-2.728 4.375-2.728 7.326zM53.346 7.979l0.856 3.729h1.225v-5.89h-1.028l-1.054 2.161zM57.72 15.688c0 3.022 0.892 5.464 2.675 7.326s4.054 2.793 6.812 2.793c2.837 0 5.112-0.984 6.825-2.952 1.713-1.976 2.569-4.427 2.569-7.352 0-3.075-0.865-5.53-2.596-7.366s-4.010-2.754-6.839-2.754c-2.829 0-5.112 0.975-6.852 2.925-1.73 1.95-2.596 4.41-2.596 7.379zM60.237 15.226c0-2.67 0.593-4.726 1.779-6.167 1.195-1.449 2.916-2.174 5.165-2.174 2.099 0 3.773 0.799 5.020 2.398 1.256 1.599 1.884 3.694 1.884 6.285 0 2.881-0.589 5.073-1.766 6.575-1.168 1.493-2.881 2.24-5.139 2.24-2.064 0-3.738-0.835-5.020-2.504-1.282-1.678-1.924-3.896-1.924-6.654zM78.592 25.412h7.642v-1.080l-2.688-0.474-0.026-8.367 0.053-8.314 0.369-0.25h2.266c1.133 0 1.954 0.29 2.464 0.87s0.764 1.419 0.764 2.517c0 1.239-0.294 2.222-0.883 2.952-0.58 0.729-1.52 1.094-2.82 1.094h-1.871l-1.436-0.013v1.028c0.474 0.035 1.16 0.075 2.056 0.119 0.905 0.035 1.647 0.053 2.227 0.053 1.441 0 2.684-0.492 3.729-1.476 1.054-0.993 1.581-2.284 1.581-3.874 0-1.449-0.435-2.569-1.304-3.36-0.861-0.791-2.196-1.186-4.006-1.186h-8.117v1.225l2.583 0.448 0.026 8.156-0.026 8.38-2.583 0.474v1.080zM85.589 15.371l5.811 9.197 0.87 0.843h3.321v-1.080c-0.484-0.009-1.028-0.202-1.634-0.58-0.597-0.387-1.287-1.173-2.069-2.359l-4.388-7.023-1.911 1.001zM94.862 25.412h6.522v-1.080l-2.464-0.395 1.687-5.297 3.61-9.988 3.808 10.040 1.726 5.231-2.24 0.408v1.080h7.036v-1.080l-2.227-0.461-2.372-6.232-4.454-12.096h-1.608l-4.506 12.728-2.121 5.6-2.398 0.461v1.080zM99.737 19.245h9.553l-0.343-1.318-4.282 0.145-4.467-0.132-0.461 1.304zM115.188 25.412h14.27l0.659-5.402h-1.304l-1.41 4.23h-6.575l-0.685-0.343-0.026-8.42 0.026-8.156 3.017-0.448v-1.225h-7.972v1.225l2.583 0.448 0.026 8.156-0.026 8.433-2.583 0.422v1.080z"></path>
</symbol>
<symbol id="icon-facebook" viewBox="0 0 32 32">
<path d="M32 16c0-8.8-7.2-16-16-16s-16 7.2-16 16c0 8 5.8 14.6 13.4 15.8v-11.2h-4v-4.6h4v-3.6c0-4 2.4-6.2 6-6.2 1.8 0 3.6 0.4 3.6 0.4v4h-2c-2 0-2.6 1.2-2.6 2.4v3h4.4l-0.8 4.6h-3.8v11.4c8-1.2 13.8-8 13.8-16z"></path>
</symbol>
<symbol id="icon-instagram" viewBox="0 0 32 32">
<path d="M16 2.881c4.275 0 4.781 0.019 6.462 0.094 1.563 0.069 2.406 0.331 2.969 0.55 0.744 0.288 1.281 0.638 1.837 1.194 0.563 0.563 0.906 1.094 1.2 1.838 0.219 0.563 0.481 1.412 0.55 2.969 0.075 1.688 0.094 2.194 0.094 6.463s-0.019 4.781-0.094 6.463c-0.069 1.563-0.331 2.406-0.55 2.969-0.288 0.744-0.637 1.281-1.194 1.837-0.563 0.563-1.094 0.906-1.837 1.2-0.563 0.219-1.413 0.481-2.969 0.55-1.688 0.075-2.194 0.094-6.463 0.094s-4.781-0.019-6.463-0.094c-1.563-0.069-2.406-0.331-2.969-0.55-0.744-0.288-1.281-0.637-1.838-1.194-0.563-0.563-0.906-1.094-1.2-1.837-0.219-0.563-0.481-1.413-0.55-2.969-0.075-1.688-0.094-2.194-0.094-6.463s0.019-4.781 0.094-6.463c0.069-1.563 0.331-2.406 0.55-2.969 0.288-0.744 0.638-1.281 1.194-1.838 0.563-0.563 1.094-0.906 1.838-1.2 0.563-0.219 1.412-0.481 2.969-0.55 1.681-0.075 2.188-0.094 6.463-0.094zM16 0c-4.344 0-4.887 0.019-6.594 0.094-1.7 0.075-2.869 0.35-3.881 0.744-1.056 0.412-1.95 0.956-2.837 1.85-0.894 0.888-1.438 1.781-1.85 2.831-0.394 1.019-0.669 2.181-0.744 3.881-0.075 1.713-0.094 2.256-0.094 6.6s0.019 4.887 0.094 6.594c0.075 1.7 0.35 2.869 0.744 3.881 0.413 1.056 0.956 1.95 1.85 2.837 0.887 0.887 1.781 1.438 2.831 1.844 1.019 0.394 2.181 0.669 3.881 0.744 1.706 0.075 2.25 0.094 6.594 0.094s4.888-0.019 6.594-0.094c1.7-0.075 2.869-0.35 3.881-0.744 1.050-0.406 1.944-0.956 2.831-1.844s1.438-1.781 1.844-2.831c0.394-1.019 0.669-2.181 0.744-3.881 0.075-1.706 0.094-2.25 0.094-6.594s-0.019-4.887-0.094-6.594c-0.075-1.7-0.35-2.869-0.744-3.881-0.394-1.063-0.938-1.956-1.831-2.844-0.887-0.887-1.781-1.438-2.831-1.844-1.019-0.394-2.181-0.669-3.881-0.744-1.712-0.081-2.256-0.1-6.6-0.1v0z"></path>
<path d="M16 7.781c-4.537 0-8.219 3.681-8.219 8.219s3.681 8.219 8.219 8.219 8.219-3.681 8.219-8.219c0-4.537-3.681-8.219-8.219-8.219zM16 21.331c-2.944 0-5.331-2.387-5.331-5.331s2.387-5.331 5.331-5.331c2.944 0 5.331 2.387 5.331 5.331s-2.387 5.331-5.331 5.331z"></path>
<path d="M26.462 7.456c0 1.060-0.859 1.919-1.919 1.919s-1.919-0.859-1.919-1.919c0-1.060 0.859-1.919 1.919-1.919s1.919 0.859 1.919 1.919z"></path>
</symbol>
<symbol id="icon-telegram" viewBox="0 0 32 32">
<path d="M16 0c-8.838 0-16 7.162-16 16s7.162 16 16 16 16-7.163 16-16-7.163-16-16-16zM23.863 10.969l-2.625 12.369c-0.181 0.881-0.712 1.087-1.45 0.681l-4-2.956-1.919 1.869c-0.225 0.219-0.4 0.4-0.8 0.4-0.519 0-0.431-0.194-0.606-0.688l-1.363-4.475-3.956-1.231c-0.856-0.262-0.862-0.85 0.194-1.269l15.412-5.95c0.7-0.319 1.381 0.169 1.113 1.25z"></path>
</symbol>
<symbol id="icon-linkedin" viewBox="0 0 32 32">
<path d="M7.2 32h-6.8v-21.4h6.8v21.4zM3.8 7.6c-2.2 0-3.8-1.6-3.8-3.8s1.8-3.8 3.8-3.8c2.2 0 3.8 1.6 3.8 3.8s-1.6 3.8-3.8 3.8zM32 32h-6.8v-11.6c0-3.4-1.4-4.4-3.4-4.4s-4 1.6-4 4.6v11.4h-6.8v-21.4h6.4v3c0.6-1.4 3-3.6 6.4-3.6 3.8 0 7.8 2.2 7.8 8.8v13.2h0.4z"></path>
</symbol>
</defs>
</svg>
